<?xml version="1.0" encoding="utf-8"?>
<!-- Generator: Adobe Illustrator 16.0.0, SVG Export Plug-In . SVG Version: 6.00 Build 0)  -->
<!DOCTYPE svg PUBLIC "-//W3C//DTD SVG 1.1//EN" "http://www.w3.org/Graphics/SVG/1.1/DTD/svg11.dtd">
<svg version="1.1" id="Layer_1" xmlns="http://www.w3.org/2000/svg" xmlns:xlink="http://www.w3.org/1999/xlink" x="0px" y="0px"
	 width="500px" height="500px" viewBox="0 0 500 500" enable-background="new 0 0 500 500" xml:space="preserve">
<path fill="#F2F2F2" stroke="#000000" stroke-width="5" stroke-miterlimit="10" d="M488.544,16.511
	c-130.518,0.457-236.722,31.23-236.722,111.832l-0.148,3.502c0-80.644-106.299-114.861-236.976-115.333l-2.747,357.502h-1.748
	c92.691,0,172.938,32.438,212.486,79.866h52.595c39.545-47.428,119.797-79.866,212.525-79.866l-2.039,0.004L488.544,16.511z"/>
<path fill="#F2F2F2" stroke="#000000" stroke-width="3" stroke-miterlimit="10" d="M14.951,16.5c0.918,0,1.831,0.008,2.747,0.012
	V16.5H14.951z"/>
<path fill="#F2F2F2" stroke="#000000" stroke-width="3" stroke-miterlimit="10" d="M489.544,16.5l1,0.011
	c0.986-0.004,0.97-0.011,1.959-0.011H489.544z"/>
<g>
	<g>
		<path fill="none" stroke="#000000" stroke-width="5" stroke-miterlimit="10" d="M27.034,50.245c0.477,0,0.95,0.009,1.426,0.01
			v-0.01H27.034z"/>
		<path fill="none" stroke="#000000" stroke-width="5" stroke-miterlimit="10" d="M473.354,50.257
			c-122.227,0.481-221.777,55.419-221.777,123.21h-0.162c0-67.828-99.556-122.79-222.954-123.211l-1.6,299.867h-2.428
			c111.988,0,204.682,44.943,221.663,103.758h5.676c16.984-58.814,109.694-103.758,221.605-103.758l-2.624,0.004L473.354,50.257z"/>
		<path fill="none" stroke="#000000" stroke-width="5" stroke-miterlimit="10" d="M474.354,50.245v0.012
			c0.542-0.002,1.082-0.012,1.627-0.012H474.354z"/>
	</g>
	<g>
		<path fill="none" stroke="#2E3192" stroke-width="4" stroke-miterlimit="10" d="M248.656,214.262
			C254.026,159.295,175.282,105.967,72.618,95"/>
		<path fill="none" stroke="#2E3192" stroke-width="4" stroke-miterlimit="10" d="M249.233,229.701
			c5.347-54.97-73.345-108.302-176.011-119.261"/>
		<path fill="none" stroke="#2E3192" stroke-width="4" stroke-miterlimit="10" d="M249.84,245.141
			c5.343-54.97-73.345-108.309-176.017-119.26"/>
		<path fill="none" stroke="#2E3192" stroke-width="4" stroke-miterlimit="10" d="M249.584,258.278
			c5.371-54.968-73.345-108.27-176.008-119.26"/>
		<path fill="none" stroke="#2E3192" stroke-width="4" stroke-miterlimit="10" d="M248.496,270.247
			c5.344-54.962-73.421-108.309-176.086-119.26"/>
		<path fill="none" stroke="#2E3192" stroke-width="4" stroke-miterlimit="10" d="M249.072,285.677
			c5.374-54.96-73.392-108.298-176.061-119.257"/>
		<path fill="none" stroke="#2E3192" stroke-width="4" stroke-miterlimit="10" d="M249.625,301.105
			c5.429-54.957-73.338-108.286-176.049-119.256"/>
		<path fill="none" stroke="#2E3192" stroke-width="4" stroke-miterlimit="10" d="M249.443,314.301
			c5.354-54.965-73.41-108.345-176.078-119.26"/>
		<path fill="none" stroke="#2E3192" stroke-width="4" stroke-miterlimit="10" d="M248.367,324.924
			c5.348-55.043-73.349-108.346-176.084-119.339"/>
		<path fill="none" stroke="#2E3192" stroke-width="4" stroke-miterlimit="10" d="M248.974,340.341
			c5.347-55.021-73.397-108.325-176.083-119.315"/>
		<path fill="none" stroke="#2E3192" stroke-width="4" stroke-miterlimit="10" d="M249.58,355.787
			c5.349-55.026-73.419-108.333-176.084-119.322"/>
		<path fill="none" stroke="#2E3192" stroke-width="4" stroke-miterlimit="10" d="M249.324,368.947
			c5.348-55.05-73.373-108.353-176.081-119.345"/>
		<path fill="none" stroke="#2E3192" stroke-width="4" stroke-miterlimit="10" d="M248.088,380.795
			c5.451-54.885-73.32-108.27-176.015-119.181"/>
		<path fill="none" stroke="#2E3192" stroke-width="4" stroke-miterlimit="10" d="M248.693,396.232
			c5.414-54.883-73.345-108.269-176.013-119.179"/>
		<path fill="none" stroke="#2E3192" stroke-width="4" stroke-miterlimit="10" d="M249.301,411.673
			c5.35-54.889-73.347-108.271-176.015-119.181"/>
		<path fill="none" stroke="#2E3192" stroke-width="4" stroke-miterlimit="10" d="M249.043,424.83
			c5.439-54.901-73.343-108.289-176.008-119.244"/>
	</g>
	<g>
		<path fill="none" stroke="#2E3192" stroke-width="4" stroke-miterlimit="10" d="M251.665,215.346
			c-4.837-55.021,74.336-107.595,177.168-117.49"/>
		<path fill="none" stroke="#2E3192" stroke-width="4" stroke-miterlimit="10" d="M250.917,230.779
			c-4.837-55.021,74.376-107.604,177.208-117.491"/>
		<path fill="none" stroke="#2E3192" stroke-width="4" stroke-miterlimit="10" d="M250.177,246.212
			c-4.846-55.021,74.408-107.611,177.248-117.493"/>
		<path fill="none" stroke="#2E3192" stroke-width="4" stroke-miterlimit="10" d="M250.303,259.353
			c-4.839-55.022,74.354-107.56,177.184-117.491"/>
		<path fill="none" stroke="#2E3192" stroke-width="4" stroke-miterlimit="10" d="M251.434,271.29
			c-4.881-55.019,74.34-107.529,177.099-117.486"/>
		<path fill="none" stroke="#2E3192" stroke-width="4" stroke-miterlimit="10" d="M250.686,286.723
			c-4.838-55.021,74.34-107.528,177.099-117.486"/>
		<path fill="none" stroke="#2E3192" stroke-width="4" stroke-miterlimit="10" d="M249.938,302.156
			c-4.838-55.021,74.339-107.528,177.098-117.485"/>
		<path fill="none" stroke="#2E3192" stroke-width="4" stroke-miterlimit="10" d="M250.072,315.369
			c-4.849-55.06,74.338-107.602,177.1-117.527"/>
		<path fill="none" stroke="#2E3192" stroke-width="4" stroke-miterlimit="10" d="M251.004,325.943
			c-4.94-55.033,74.394-107.548,177.153-117.505"/>
		<path fill="none" stroke="#2E3192" stroke-width="4" stroke-miterlimit="10" d="M250.293,341.382
			c-4.952-55.04,74.354-107.559,177.116-117.51"/>
		<path fill="none" stroke="#2E3192" stroke-width="4" stroke-miterlimit="10" d="M249.561,356.792
			c-4.931-55.017,74.338-107.543,177.098-117.486"/>
		<path fill="none" stroke="#2E3192" stroke-width="4" stroke-miterlimit="10" d="M249.655,369.982
			c-4.951-55.065,74.378-107.579,177.138-117.537"/>
		<path fill="none" stroke="#2E3192" stroke-width="4" stroke-miterlimit="10" d="M250.671,381.876
			c-4.835-54.941,74.337-107.527,177.103-117.423"/>
		<path fill="none" stroke="#2E3192" stroke-width="4" stroke-miterlimit="10" d="M249.921,397.308
			c-4.833-54.938,74.339-107.525,177.154-117.432"/>
		<path fill="none" stroke="#2E3192" stroke-width="4" stroke-miterlimit="10" d="M249.172,412.739
			c-4.833-54.937,74.366-107.525,177.196-117.439"/>
		<path fill="none" stroke="#2E3192" stroke-width="4" stroke-miterlimit="10" d="M249.307,425.88
			c-4.835-54.937,74.34-107.525,177.13-117.478"/>
	</g>
</g>
<g>
	<path fill="#2E3192" d="M385.026,324.551L499,467.875l-1.623-1.761c0,13.703-14.453,24.437-28.303,24.437L355.097,347.227"/>
	<path fill="#2E3192" d="M464.134,337.985c0,47.877-39.293,86.693-87.771,86.693c-48.473,0-87.771-38.816-87.771-86.693
		c0-47.88,39.299-86.694,87.771-86.694C424.841,251.291,464.134,290.105,464.134,337.985z"/>
	<path fill="#FFFFFF" d="M436.054,337.985c0,32.554-26.722,58.96-59.69,58.96c-32.964,0-59.688-26.406-59.688-58.96
		c0-32.559,26.725-58.962,59.688-58.962C409.332,279.023,436.054,305.427,436.054,337.985z"/>
	<path fill="#00FFFF" d="M410.287,338.593c0,18.483-15.18,33.499-33.926,33.499c-18.741,0-33.926-15.016-33.926-33.499
		c0-18.485,15.185-33.501,33.926-33.501C395.107,305.092,410.287,320.107,410.287,338.593z"/>
	<path fill="#F2F2F2" d="M429.576,406.051l19.909,25.049l-0.283-0.312c0,2.379-2.521,4.263-4.928,4.263l-19.909-25.05"/>
</g>
</svg>
