<?xml version="1.0" encoding="utf-8"?>
<!-- Generator: Adobe Illustrator 16.0.0, SVG Export Plug-In . SVG Version: 6.00 Build 0)  -->
<!DOCTYPE svg PUBLIC "-//W3C//DTD SVG 1.1//EN" "http://www.w3.org/Graphics/SVG/1.1/DTD/svg11.dtd">
<svg version="1.1" id="Layer_1" xmlns="http://www.w3.org/2000/svg" xmlns:xlink="http://www.w3.org/1999/xlink" x="0px" y="0px"
	 width="500px" height="500px" viewBox="0 0 500 500" enable-background="new 0 0 500 500" xml:space="preserve">
<g>
	<polygon fill="#FFFFFF" points="70.087,55.054 76.725,17.994 251.501,87.495 	"/>
	<polygon fill="#FFFFFF" points="128.722,28.835 139.356,4 250.443,80.981 	"/>
</g>
<g>
	<polygon fill="#FFFFFF" points="443.604,55.054 436.967,17.994 262.278,87.495 	"/>
	<polygon fill="#FFFFFF" points="384.97,28.835 374.41,4 263.323,80.981 	"/>
</g>
<path fill="#FFFFFF" d="M175.436,392.309c0-44.004,34.468-79.939,77.782-82.294V96.878L45.374,60.82v333.717l134.599,24.568
	C177.06,410.714,175.436,401.632,175.436,392.309z"/>
<path fill="#FFFFFF" d="M263.53,96.878V310.17c42.615,3.14,76.252,38.625,76.252,82.139c0,8.715-1.468,17.076-3.968,24.963
	c0.012,0.598,0.032,1.347,0.032,2.095l135.527-24.829V60.82L263.53,96.878z"/>
<path fill="#FFFFFF" d="M255.518,324.974c-34.617,0-62.711,28.021-62.711,62.787c0,34.617,28.095,62.785,62.711,62.785
	c34.689,0,62.787-28.168,62.787-62.785C318.305,352.994,290.207,324.974,255.518,324.974z M255.533,426.256
	c-21.277,0-38.502-17.283-38.502-38.495c0-21.329,17.226-38.505,38.502-38.505c21.264,0,38.562,17.176,38.562,38.505
	C294.095,408.973,276.797,426.256,255.533,426.256z"/>
<line fill="none" stroke="#FFFFFF" stroke-width="26" stroke-miterlimit="10" x1="282.599" y1="431.813" x2="322.75" y2="490.794"/>
</svg>
